<?xml version="1.0" encoding="UTF-8" standalone="no"?>
<!-- Created with Inkscape (http://www.inkscape.org/) -->

<svg
   width="4"
   height="8"
   viewBox="0 0 4 8.0000004"
   version="1.1"
   id="svg1"
   inkscape:version="1.3.1 (91b66b0, 2023-11-16)"
   inkscape:export-filename="bitmap.svg"
   inkscape:export-xdpi="96"
   inkscape:export-ydpi="96"
   sodipodi:docname="particle (inkscape).svg"
   xmlns:inkscape="http://www.inkscape.org/namespaces/inkscape"
   xmlns:sodipodi="http://sodipodi.sourceforge.net/DTD/sodipodi-0.dtd"
   xmlns="http://www.w3.org/2000/svg"
   xmlns:svg="http://www.w3.org/2000/svg">
  <sodipodi:namedview
     id="namedview1"
     pagecolor="#ffffff"
     bordercolor="#111111"
     borderopacity="1"
     inkscape:showpageshadow="false"
     inkscape:pageopacity="0"
     inkscape:pagecheckerboard="false"
     inkscape:deskcolor="#d1d1d1"
     inkscape:document-units="px"
     showgrid="true"
     showborder="true"
     inkscape:zoom="90.509668"
     inkscape:cx="0.20439805"
     inkscape:cy="5.2370096"
     inkscape:window-width="1264"
     inkscape:window-height="1363"
     inkscape:window-x="12"
     inkscape:window-y="25"
     inkscape:window-maximized="0"
     inkscape:current-layer="g6">
    <inkscape:grid
       id="grid1"
       units="px"
       originx="0"
       originy="0"
       spacingx="1"
       spacingy="1"
       empcolor="#0099e5"
       empopacity="0.30196078"
       color="#0099e5"
       opacity="0.14901961"
       empspacing="6"
       dotted="false"
       gridanglex="30"
       gridanglez="30"
       visible="true" />
  </sodipodi:namedview>
  <defs
     id="defs1" />
  <g
     inkscape:groupmode="layer"
     id="layer86"
     inkscape:label="AA"
     style="display:none">
    <path
       id="rect5-29-25"
       style="display:inline;fill:#008080"
       inkscape:label="PERIOD"
       d="M 0,1 V 2 3 4 5 6 H 1 V 5 4 l 1,-2e-7 V 2.9999999 L 1,3 V 2 H 2 V 3 4 5 6 H 3 V 5 4 3 2 1 H 2 1 Z"
       sodipodi:nodetypes="ccccccccccccccccccccccccccc" />
  </g>
  <g
     inkscape:groupmode="layer"
     id="layer2"
     inkscape:label="BB"
     style="display:none">
    <path
       id="rect5-4"
       style="fill:#008080;stroke-width:2"
       d="M 0,1 V 2 6 H 1 2 V 5 H 1 V 4 H 2 V 5 H 3 V 4 3 2 H 2 V 3 H 1 V 2 H 2 V 1 H 1 Z"
       inkscape:label="B" />
  </g>
  <g
     inkscape:groupmode="layer"
     id="layer3"
     inkscape:label="CC"
     style="display:none">
    <path
       id="rect5-2"
       style="fill:#008080"
       d="M 1,1 V 2 H 2 3 V 1 H 2 Z M 1,2 H 0 V 3 4 5 H 1 V 4 3 Z M 1,5 V 6 H 2 3 V 5 H 2 Z"
       inkscape:label="C" />
  </g>
  <g
     inkscape:groupmode="layer"
     id="layer4"
     inkscape:label="DD"
     style="display:none">
    <path
       id="rect5-29-86-0"
       style="display:inline;fill:#008080"
       inkscape:label="shape"
       d="M 0,1 V 2 3 4 5 6 H 1 2 V 5 H 1 V 4 3 2 H 2 V 1 H 1 Z M 2,2 V 3 4 5 H 3 V 4 3 2 Z" />
  </g>
  <g
     inkscape:groupmode="layer"
     id="layer6"
     inkscape:label="EE"
     style="display:none">
    <path
       id="rect5-99"
       style="display:inline;fill:#008080"
       d="M 0,1 V 2 3 4 5 6 H 1 2 3 V 5 H 2 1 V 4 H 2 V 3 H 1 V 2 H 2 3 V 1 H 2 1 Z"
       inkscape:label="E" />
  </g>
  <g
     inkscape:groupmode="layer"
     id="layer7"
     inkscape:label="FF"
     style="display:none">
    <path
       id="rect5"
       style="display:inline;fill:#008080"
       d="M 0,1 V 2 3 4 5 6 H 1 V 5 4 H 2 V 3 H 1 V 2 H 2 3 V 1 H 2 1 Z"
       inkscape:label="F" />
  </g>
  <g
     inkscape:groupmode="layer"
     id="layer8"
     inkscape:label="GG"
     style="display:none">
    <path
       id="rect5-29-85"
       style="display:inline;fill:#008080"
       inkscape:label="shape"
       d="M 1,1 V 2 H 2 V 1 Z M 2,2 V 3 H 3 V 2 Z M 1,2 H 0 V 3 4 5 6 H 1 2 3 V 5 4 H 2 V 5 H 1 V 4 3 Z" />
  </g>
  <g
     inkscape:groupmode="layer"
     id="layer9"
     inkscape:label="HH"
     style="display:none">
    <path
       id="rect5-45"
       style="display:inline;fill:#008080"
       d="M 0,1 V 2 3 4 5 6 H 1 V 5 4 H 2 V 5 6 H 3 V 5 4 3 2 1 H 2 V 2 3 H 1 V 2 1 Z"
       inkscape:label="H" />
  </g>
  <g
     inkscape:groupmode="layer"
     id="layer10"
     inkscape:label="II"
     style="display:none">
    <path
       id="rect5-150"
       style="display:inline;fill:#008080"
       inkscape:label="I"
       d="M 0,1 V 2 H 1 V 3 4 5 H 0 V 6 H 1 2 3 V 5 H 2 V 4 3 2 H 3 V 1 H 2 1 Z" />
  </g>
  <g
     inkscape:groupmode="layer"
     id="layer11"
     inkscape:label="JJ"
     style="display:none">
    <path
       id="rect5-29-86-11"
       style="display:inline;fill:#008080"
       inkscape:label="shape"
       d="M 2,1 V 2 3 4 5 H 3 V 4 3 2 1 Z M 2,5 H 1 V 6 H 2 Z M 1,5 V 4 H 0 v 1 z" />
  </g>
  <g
     inkscape:groupmode="layer"
     id="layer12"
     inkscape:label="KK"
     style="display:none">
    <path
       id="rect5-88"
       style="display:inline;fill:#008080"
       d="M 0,1 V 2 3 4 5 6 H 1 V 5 4 H 2 V 3 H 1 V 2 1 Z M 2,3 H 3 V 2 1 H 2 V 2 Z M 2,4 V 5 6 H 3 V 5 4 Z"
       inkscape:label="K" />
  </g>
  <g
     inkscape:groupmode="layer"
     id="layer13"
     inkscape:label="LL"
     style="display:none">
    <path
       id="rect5-552"
       style="display:inline;fill:#008080"
       inkscape:label="L"
       d="M 0,1 V 2 3 4 5 6 H 1 2 3 V 5 H 2 1 V 4 3 2 1 Z" />
  </g>
  <g
     inkscape:groupmode="layer"
     id="layer14"
     inkscape:label="MM"
     style="display:none">
    <path
       id="rect5-21"
       style="display:inline;fill:#008080"
       d="M 0,1 V 2 3 4 5 6 H 1 V 5 4 3 H 2 V 4 5 6 H 3 V 5 4 3 2 1 H 2 V 2 H 1 V 1 Z"
       inkscape:label="M" />
  </g>
  <g
     inkscape:groupmode="layer"
     id="layer15"
     inkscape:label="NN"
     style="display:none">
    <path
       id="rect5-69"
       style="display:inline;fill:#008080"
       d="M 0,1 V 2 3 4 5 6 H 1 V 5 4 3 2 H 2 V 1 H 1 Z M 2,2 V 3 4 5 6 H 3 V 5 4 3 2 Z"
       inkscape:label="N" />
  </g>
  <g
     inkscape:groupmode="layer"
     id="layer16"
     inkscape:label="OO"
     style="display:none">
    <path
       id="rect5-29-2"
       style="fill:#008080"
       inkscape:label="O"
       d="M 0,1 V 2 3 4 5 6 H 1 2 3 V 5 4 3 2 H 2 V 3 4 5 H 1 V 4 3 2 H 2 V 1 H 1 Z" />
  </g>
  <g
     inkscape:groupmode="layer"
     id="layer17"
     inkscape:label="PP"
     style="display:none">
    <path
       id="rect5-733"
       style="display:inline;fill:#008080"
       inkscape:label="P"
       d="M 0,1 V 2 3 4 5 6 H 1 V 5 4 H 2 V 3 H 1 V 2 H 2 V 3 3 3.9999998 L 3,4 V 3 2 1 H 2 1 Z"
       sodipodi:nodetypes="cccccccccccccccccccccccc" />
  </g>
  <g
     inkscape:groupmode="layer"
     id="layer18"
     inkscape:label="QQ"
     style="display:none">
    <path
       id="rect5-0080"
       style="display:inline;fill:#008080"
       d="M 1,1 V 2 H 2 V 1 Z M 2,2 V 3 4 5 H 1 V 6 H 2 3 V 5 4 3 2 Z M 1,5 V 4 3 2 H 0 v 1 1 1 z"
       inkscape:label="Q" />
  </g>
  <g
     inkscape:groupmode="layer"
     id="layer19"
     inkscape:label="RR"
     style="display:none">
    <path
       id="rect5-779"
       style="display:inline;fill:#008080"
       inkscape:label="R"
       d="M 0,1 V 2 3 4 5 6 H 1 V 5 4 H 2 V 3 H 1 V 2 H 2 V 3 H 3 V 2 1 H 2 1 Z M 2,4 V 5 6 H 3 V 5 4 Z" />
  </g>
  <g
     inkscape:groupmode="layer"
     id="layer20"
     inkscape:label="SS"
     style="display:none">
    <path
       id="rect5-84"
       style="display:inline;fill:#008080"
       inkscape:label="S"
       d="M 0,1 V 2 3 4 H 1 2 V 5 H 1 0 V 6 H 1 2 3 V 5 4 3 H 2 1 V 2 H 2 3 V 1 H 2 1 Z" />
  </g>
  <g
     inkscape:groupmode="layer"
     id="layer21"
     inkscape:label="TT"
     style="display:none">
    <path
       id="rect5-156"
       style="display:inline;fill:#008080"
       d="M 0,1 V 2 H 1 V 3 4 5 6 H 2 V 5 4 3 2 H 3 V 1 H 2 1 Z"
       inkscape:label="T" />
  </g>
  <g
     inkscape:groupmode="layer"
     id="layer22"
     inkscape:label="UU"
     style="display:none">
    <path
       id="rect5-666"
       style="display:inline;fill:#008080"
       d="M 0,1 V 2 3 4 5 6 H 1 2 3 V 5 4 3 2 1 H 2 V 2 3 4 5 H 1 V 4 3 2 1 Z"
       inkscape:label="U" />
  </g>
  <g
     inkscape:groupmode="layer"
     id="layer23"
     inkscape:label="VV"
     style="display:none">
    <path
       id="rect5-441"
       style="display:inline;fill:#008080"
       d="M 0,1 V 2 3 4 5 H 1 V 4 3 2 1 Z M 1,5 V 6 H 2 V 5 Z M 2,5 H 3 V 4 3 2 1 H 2 v 1 1 1 z"
       inkscape:label="V" />
  </g>
  <g
     inkscape:groupmode="layer"
     id="layer24"
     inkscape:label="WW"
     style="display:none">
    <path
       id="rect5-896"
       style="display:inline;fill:#008080"
       d="M 0,1 V 2 3 4 5 6 H 1 V 5 H 2 V 6 H 3 V 5 4 3 2 1 H 2 V 2 3 4 H 1 V 3 2 1 Z"
       inkscape:label="W" />
  </g>
  <g
     inkscape:groupmode="layer"
     id="layer25"
     inkscape:label="XX"
     style="display:none">
    <path
       id="rect5-354"
       style="display:inline;fill:#008080"
       d="M 0,1 V 2 3 H 1 V 2 1 Z M 1,3 V 4 H 2 V 3 Z M 2,3 H 3 V 2 1 H 2 V 2 Z M 2,4 V 5 6 H 3 V 5 4 Z M 1,4 H 0 V 5 6 H 1 V 5 Z"
       inkscape:label="X" />
  </g>
  <g
     inkscape:groupmode="layer"
     id="layer26"
     inkscape:label="YY"
     style="display:none">
    <path
       id="rect5-691"
       style="display:inline;fill:#008080"
       d="M 0,1 V 2 3 4 H 1 V 3 2 1 Z M 1,4 V 5 6 H 2 V 5 4 Z M 2,4 H 3 V 3 2 1 H 2 v 1 1 z"
       inkscape:label="Y" />
  </g>
  <g
     inkscape:groupmode="layer"
     id="layer27"
     inkscape:label="ZZ"
     style="display:none">
    <path
       id="rect5-4969"
       style="display:inline;fill:#008080"
       d="M 0,1 V 2 H 1 2 V 3 H 3 V 2 1 H 2 1 Z M 2,3 H 1 V 4 H 2 Z M 1,4 H 0 V 5 6 H 1 2 3 V 5 H 2 1 Z"
       inkscape:label="Z" />
  </g>
  <g
     inkscape:groupmode="layer"
     id="layer28"
     inkscape:label="1"
     style="display:none">
    <path
       id="rect5-230"
       style="display:inline;fill:#008080"
       inkscape:label="1"
       d="M 0,1 V 2 H 1 V 3 4 5 H 0 V 6 H 1 2 3 V 5 H 2 V 4 3 2 1 H 1 Z" />
  </g>
  <g
     inkscape:groupmode="layer"
     id="layer29"
     inkscape:label="2"
     style="display:none">
    <path
       id="rect5-110"
       style="display:inline;fill:#008080"
       d="M 0,1 V 2 H 1 2 V 1 H 1 Z M 2,2 V 3 H 3 V 2 Z M 2,3 H 1 V 4 H 2 Z M 1,4 H 0 V 5 6 H 1 2 3 V 5 H 2 1 Z"
       inkscape:label="22" />
  </g>
  <g
     inkscape:groupmode="layer"
     id="layer30"
     inkscape:label="3"
     style="display:none">
    <path
       id="rect5-597"
       style="display:inline;fill:#008080"
       d="M 0,1 V 2 H 1 2 V 1 H 1 Z M 2,2 V 3 H 3 V 2 Z M 2,3 H 1 V 4 H 2 Z M 2,4 V 5 H 3 V 4 Z M 2,5 H 1 0 v 1 h 1 1 z"
       inkscape:label="3" />
  </g>
  <g
     inkscape:groupmode="layer"
     id="layer31"
     inkscape:label="4"
     style="display:none">
    <path
       id="rect5-359"
       style="display:inline;fill:#008080"
       d="M 0,1 V 2 3 4 H 1 2 V 5 6 H 3 V 5 4 3 2 1 H 2 V 2 3 H 1 V 2 1 Z"
       inkscape:label="4" />
  </g>
  <g
     inkscape:groupmode="layer"
     id="layer32"
     inkscape:label="5"
     style="display:none">
    <path
       id="rect5-74"
       style="display:inline;fill:#008080"
       d="M 0,1 V 2 3 4 H 1 2 V 5 H 3 V 4 3 H 2 1 V 2 H 2 3 V 1 H 2 1 Z M 2,5 H 1 0 v 1 h 1 1 z"
       inkscape:label="5" />
  </g>
  <g
     inkscape:groupmode="layer"
     id="layer33"
     inkscape:label="6"
     style="display:none">
    <path
       id="rect5-044"
       style="display:inline;fill:#008080"
       d="M 1,1 V 2 H 2 3 V 1 H 2 Z M 1,2 H 0 V 3 4 5 6 H 1 2 V 5 H 1 V 4 H 2 V 5 H 3 V 4 3 H 2 1 Z"
       inkscape:label="6" />
  </g>
  <g
     inkscape:groupmode="layer"
     id="layer34"
     inkscape:label="7"
     style="display:none">
    <path
       id="rect5-006"
       style="display:inline;fill:#008080"
       d="M 0,1 V 2 H 1 2 V 3 H 3 V 2 1 H 2 1 Z M 2,3 H 1 V 4 5 6 H 2 V 5 4 Z"
       inkscape:label="7" />
  </g>
  <g
     inkscape:groupmode="layer"
     id="layer35"
     inkscape:label="8"
     style="display:none">
    <path
       id="rect5-741"
       style="display:inline;fill:#008080"
       d="M 1,1 V 2 H 2 V 3 H 1 V 2 H 0 V 3 4 5 6 H 1 2 V 5 H 1 V 4 H 2 V 5 H 3 V 4 3 2 1 H 2 Z"
       inkscape:label="8" />
  </g>
  <g
     inkscape:groupmode="layer"
     id="layer36"
     inkscape:label="9"
     style="display:none">
    <path
       id="rect5-296"
       style="display:inline;fill:#008080"
       d="M 0,1 V 2 3 4 H 1 2 V 5 6 H 3 V 5 4 3 2 H 2 V 3 H 1 V 2 H 2 V 1 H 1 Z"
       inkscape:label="9" />
    <path
       id="rect5-29-86-8"
       style="display:inline;fill:#008080"
       d="M 2,1 V 2 H 3 V 1 Z"
       inkscape:label="shape" />
  </g>
  <g
     inkscape:groupmode="layer"
     id="layer37"
     inkscape:label="ZERO"
     style="display:none">
    <path
       id="rect5-29-65"
       style="display:inline;fill:#008080"
       inkscape:label="PERIOD"
       d="M 0,1 V 2 3 4 4.9999998 H 1 V 4 3 2 H 2 V 3 4 5 H 1 0 V 6 H 1 2 3 V 5 4 3 2 1 H 2 1 Z"
       sodipodi:nodetypes="ccccccccccccccccccccccccccc" />
  </g>
  <g
     inkscape:groupmode="layer"
     id="layer38"
     inkscape:label="DASH"
     style="display:none">
    <path
       id="rect5-0"
       style="display:inline;fill:#008080"
       d="M 0,3 V 4 H 1 2 3 V 3 H 2 1 Z"
       inkscape:label="DASH" />
  </g>
  <g
     inkscape:groupmode="layer"
     id="layer39"
     inkscape:label="PLUS"
     style="display:none">
    <path
       id="rect5-1"
       style="display:inline;fill:#008080"
       d="M 1,2 V 3 H 0 V 4 H 1 V 5 H 2 V 4 H 3 V 3 H 2 V 2 Z"
       inkscape:label="PLUS" />
  </g>
  <g
     inkscape:groupmode="layer"
     id="layer40"
     inkscape:label="MULT"
     style="display:none">
    <path
       id="rect5-06"
       style="display:inline;fill:#008080"
       d="M 0,2 V 3 H 1 V 2 Z M 1,3 V 4 H 2 V 3 Z M 2,3 H 3 V 2 H 2 Z M 2,4 V 5 H 3 V 4 Z M 1,4 H 0 v 1 h 1 z"
       inkscape:label="MULT" />
  </g>
  <g
     inkscape:groupmode="layer"
     id="layer42"
     inkscape:label="DIV"
     style="display:none">
    <path
       id="rect5-58"
       style="display:inline;fill:#008080"
       d="M 1,2 V 3 H 2 V 2 Z M 2,3 V 4 H 3 V 3 Z M 2,4 H 1 V 5 H 2 Z M 1,4 V 3 H 0 v 1 z"
       inkscape:label="DIV" />
  </g>
  <g
     inkscape:groupmode="layer"
     id="layer43"
     inkscape:label="COMMA"
     style="display:none">
    <path
       id="rect5-76"
       style="display:inline;fill:#008080"
       d="m 0,4.9999997 v 1 1 h 1 v -1 -1 z"
       inkscape:label="COMMA" />
  </g>
  <g
     inkscape:groupmode="layer"
     id="layer44"
     inkscape:label="PERIOD"
     style="display:none">
    <path
       id="rect5-29"
       style="display:inline;fill:#008080"
       d="m 0,4.9999998 v 1 h 1 v -1 z"
       inkscape:label="shape" />
  </g>
  <g
     inkscape:groupmode="layer"
     id="g6"
     inkscape:label="DOT"
     style="display:inline">
    <path
       id="path5"
       style="display:inline;fill:#008080"
       d="m 0,3.9999998 v 1 h 1 v -1 z"
       inkscape:label="shape" />
  </g>
  <g
     inkscape:groupmode="layer"
     id="layer45"
     inkscape:label="COLON"
     style="display:none">
    <path
       id="rect5-30"
       style="display:inline;fill:#008080"
       d="m 0,2.9941408 v 1 h 1 v -1 z m 0,2.005859 v 1 h 1 v -1 z"
       inkscape:label="COLON" />
  </g>
  <g
     inkscape:groupmode="layer"
     id="g2"
     inkscape:label="SEMICOLON"
     style="display:none">
    <path
       id="path2"
       style="display:inline;fill:#008080"
       inkscape:label="SEMICOLON"
       d="m 0,2.9941397 v 1 h 1 v -1 z m 0,2.0058594 v 0.9941406 0.00586 0.9941406 H 1 V 5.9999991 5.9941397 4.9999991 Z" />
  </g>
  <g
     inkscape:groupmode="layer"
     id="layer46"
     inkscape:label="fslash"
     style="display:none">
    <path
       id="rect5-29-8"
       style="fill:#008080"
       inkscape:label="shape"
       d="M 2,1 V 2 3 H 3 V 2 1 Z M 2,3 H 1 V 4 H 2 Z M 1,4 H 0 V 5 6 H 1 V 5 Z" />
  </g>
  <g
     inkscape:groupmode="layer"
     id="g1"
     inkscape:label="bslash"
     style="display:none">
    <path
       id="path1"
       style="display:inline;fill:#008080"
       inkscape:label="shape"
       d="M 0,1 V 2 3 H 1 V 2 1 Z M 1,3 V 4 H 2 V 3 Z M 2,4 V 5 6 H 3 V 5 4 Z" />
  </g>
  <g
     inkscape:groupmode="layer"
     id="layer47"
     inkscape:label="("
     style="display:none">
    <path
       id="rect5-29-9"
       style="fill:#008080"
       inkscape:label="shape"
       d="M 1,1 V 2 H 2 V 1 Z M 1,2 H 0 V 3 4 5 H 1 V 4 3 Z M 1,5 V 6 H 2 V 5 Z" />
  </g>
  <g
     inkscape:groupmode="layer"
     id="layer48"
     inkscape:label=")"
     style="display:none">
    <path
       id="rect5-29-7"
       style="display:none;fill:#008080"
       inkscape:label="shape"
       d="M 1,1 V 2 H 2 V 1 Z M 2,2 V 3 4 5 H 3 V 4 3 2 Z M 2,5 H 1 v 1 h 1 z" />
  </g>
  <g
     inkscape:groupmode="layer"
     id="layer49"
     inkscape:label="`"
     style="display:none">
    <path
       id="rect5-29-91"
       style="fill:#008080"
       inkscape:label="shape"
       d="M 0,1 V 2 H 1 V 1 Z M 1,2 V 3 H 2 V 2 Z" />
  </g>
  <g
     inkscape:groupmode="layer"
     id="layer50"
     inkscape:label="&lt;"
     style="display:none">
    <path
       id="rect5-29-20"
       style="fill:#008080"
       inkscape:label="shape"
       d="M 1,2 V 3 H 2 V 2 Z M 1,3 H 0 V 4 H 1 Z M 1,4 V 5 H 2 V 4 Z" />
  </g>
  <g
     inkscape:groupmode="layer"
     id="layer51"
     inkscape:label="&gt;"
     style="display:none">
    <path
       id="rect5-29-86"
       style="display:inline;fill:#008080"
       d="M 1,2 V 3 H 2 V 2 Z"
       inkscape:label="shape" />
    <path
       id="rect5-29-86-1"
       style="display:inline;fill:#008080"
       d="M 2,3 V 4 H 3 V 3 Z"
       inkscape:label="shape" />
    <path
       id="rect5-29-86-3"
       style="display:inline;fill:#008080"
       d="M 1,4 V 5 H 2 V 4 Z"
       inkscape:label="shape" />
  </g>
  <g
     inkscape:groupmode="layer"
     id="layer52"
     inkscape:label="?"
     style="display:none">
    <path
       id="rect5-29-86-9"
       style="display:inline;fill:#008080"
       inkscape:label="shape"
       d="M 0,1 V 2 H 1 2 V 3 H 3 V 2 1 H 2 1 Z M 2,3 H 1 V 4 H 2 Z M 1,5 V 6 H 2 V 5 Z" />
  </g>
  <g
     inkscape:groupmode="layer"
     id="layer53"
     inkscape:label="_"
     style="display:none">
    <path
       id="rect5-29-86-15"
       style="display:inline;fill:#008080"
       inkscape:label="shape"
       d="M 0,5 V 6 H 1 2 3 V 5 H 2 1 Z" />
  </g>
  <g
     inkscape:groupmode="layer"
     id="layer54"
     inkscape:label="!"
     style="display:none">
    <path
       id="rect5-29-86-5"
       style="display:inline;fill:#008080"
       inkscape:label="shape"
       d="M 1,1 V 2 3 4 H 2 V 3 2 1 Z M 1,5 V 6 H 2 V 5 Z" />
  </g>
  <g
     inkscape:groupmode="layer"
     id="layer55"
     inkscape:label="["
     style="display:none">
    <path
       id="rect5-29-86-6"
       style="display:inline;fill:#008080"
       inkscape:label="shape"
       d="M 0,1 V 2 3 4 5 6 H 1 2 V 5 H 1 V 4 3 2 H 2 V 1 H 1 Z" />
  </g>
  <g
     inkscape:groupmode="layer"
     id="layer56"
     inkscape:label="]"
     style="display:none">
    <path
       id="rect5-29-86-95"
       style="display:inline;fill:#008080"
       inkscape:label="shape"
       d="M 1,1 V 2 H 2 V 3 4 5 H 1 V 6 H 2 3 V 5 4 3 2 1 H 2 Z" />
  </g>
  <g
     inkscape:groupmode="layer"
     id="layer57"
     inkscape:label="="
     style="display:none">
    <path
       id="rect5-29-86-4"
       style="display:inline;fill:#008080"
       inkscape:label="shape"
       d="M 0,2 V 3 H 1 2 3 V 2 H 2 1 Z M 0,4 V 5 H 1 2 3 V 4 H 2 1 Z" />
  </g>
  <g
     inkscape:groupmode="layer"
     id="layer59"
     inkscape:label="dblquote"
     style="display:none">
    <path
       id="rect5-29-86-55"
       style="display:inline;fill:#008080"
       inkscape:label="shape"
       d="M 0,1 V 2 3 H 1 V 2 1 Z M 2,1 V 2 3 H 3 V 2 1 Z" />
  </g>
  <g
     inkscape:groupmode="layer"
     id="layer60"
     inkscape:label="sglquote"
     style="display:none">
    <path
       id="rect5-29-86-63"
       style="display:inline;fill:#008080"
       inkscape:label="shape"
       d="M 0,1 V 2 3 H 1 V 2 1 Z" />
  </g>
  <g
     inkscape:groupmode="layer"
     id="layer90"
     inkscape:label="backtick"
     style="display:none">
    <path
       id="rect5-29-650"
       style="display:inline;fill:#008080"
       inkscape:label="shape"
       d="M 0,1 V 2 H 1 V 1 Z M 1,2 V 3 H 2 V 2 Z" />
  </g>
  <g
     inkscape:groupmode="layer"
     id="layer91"
     inkscape:label="tilde"
     style="display:none">
    <path
       id="rect5-29-651"
       style="display:inline;fill:#008080"
       inkscape:label="shape"
       d="M 0,1 V 2 H 1 V 1 Z M 1,2 V 3 H 2 V 2 Z M 2,2 H 3 V 1 H 2 Z" />
  </g>
  <g
     inkscape:groupmode="layer"
     id="layer92"
     inkscape:label="@"
     style="display:none">
    <path
       id="rect5-29-387"
       style="display:inline;fill:#008080"
       inkscape:label="shape"
       d="M 1,2 V 3 H 2 V 4 H 1 V 3 H 0 V 4 5 6 H 1 2 V 5 H 3 V 4 3 2 H 2 Z" />
  </g>
  <g
     inkscape:groupmode="layer"
     id="layer61"
     inkscape:label="a"
     style="display:none">
    <path
       id="rect5-29-3"
       style="display:inline;fill:#008080"
       inkscape:label="PERIOD"
       d="M 0,3 V 4 5 H 1 V 4 H 2 V 5 H 1 V 6 H 2 3 V 5 4 3 H 2 1 Z" />
  </g>
  <g
     inkscape:groupmode="layer"
     id="layer62"
     inkscape:label="b"
     style="display:none">
    <path
       id="rect5-29-93"
       style="display:inline;fill:#008080"
       d="M 0,1 V 2 H 1 V 1 Z"
       inkscape:label="PERIOD" />
    <path
       id="rect5-29-1"
       style="display:inline;fill:#008080"
       d="M 0,2 V 3 H 1 V 2 Z"
       inkscape:label="PERIOD" />
    <path
       id="rect5-29-90"
       style="display:inline;fill:#008080"
       d="M 0,3 V 4 H 1 V 3 Z"
       inkscape:label="PERIOD" />
    <path
       id="rect5-29-15"
       style="display:inline;fill:#008080"
       d="M 0,4 V 5 H 1 V 4 Z"
       inkscape:label="PERIOD" />
    <path
       id="rect5-29-910"
       style="display:inline;fill:#008080"
       d="M 0,5 V 6 H 1 V 5 Z"
       inkscape:label="PERIOD" />
    <path
       id="rect5-29-5"
       style="display:inline;fill:#008080"
       d="M 1,5 V 6 H 2 V 5 Z"
       inkscape:label="PERIOD" />
    <path
       id="rect5-29-24"
       style="display:inline;fill:#008080"
       d="M 2,5 V 6 H 3 V 5 Z"
       inkscape:label="PERIOD" />
    <path
       id="rect5-29-6"
       style="display:inline;fill:#008080"
       d="M 2,4 V 5 H 3 V 4 Z"
       inkscape:label="PERIOD" />
    <path
       id="rect5-29-4"
       style="display:inline;fill:#008080"
       d="M 2,3 V 4 H 3 V 3 Z"
       inkscape:label="PERIOD" />
    <path
       id="rect5-29-61"
       style="display:inline;fill:#008080"
       d="M 1,3 V 4 H 2 V 3 Z"
       inkscape:label="PERIOD" />
  </g>
  <g
     inkscape:groupmode="layer"
     id="layer63"
     inkscape:label="c"
     style="display:none">
    <path
       id="rect5-29-62"
       style="display:inline;fill:#008080"
       inkscape:label="PERIOD"
       d="M 0,3 V 4 5 6 H 1 2 3 V 5 H 2 1 V 4 H 2 3 V 3 H 2 1 Z" />
  </g>
  <g
     inkscape:groupmode="layer"
     id="layer64"
     inkscape:label="d"
     style="display:none">
    <path
       id="rect5-29-483"
       style="display:inline;fill:#008080"
       inkscape:label="PERIOD"
       d="M 2,1 V 2 3 H 1 0 V 4 4.9999998 H 1 V 4 H 2 V 5 H 1 0 V 6 H 1 2 3 V 5 4 3 2 1 Z"
       sodipodi:nodetypes="ccccccccccccccccccccccc" />
  </g>
  <g
     inkscape:groupmode="layer"
     id="layer65"
     inkscape:label="e"
     style="display:none">
    <path
       id="rect5-29-11"
       style="display:inline;fill:#008080"
       inkscape:label="PERIOD"
       d="M 0,3 V 4 5 H 1 V 4 H 2 V 3 H 1 Z M 1,5 V 6 H 2 3 V 5 H 2 Z" />
  </g>
  <g
     inkscape:groupmode="layer"
     id="layer66"
     inkscape:label="f"
     style="display:none">
    <path
       id="rect5-29-624"
       style="display:inline;fill:#008080"
       inkscape:label="PERIOD"
       d="M 1,1 V 2 H 2 V 1 Z M 1,2 H 0 V 3 4 5 6 H 1 V 5 4 H 2 V 3 H 1 Z" />
  </g>
  <g
     inkscape:groupmode="layer"
     id="layer67"
     inkscape:label="g"
     style="display:none">
    <path
       id="rect5-29-28"
       style="display:inline;fill:#008080"
       inkscape:label="shape"
       d="M 1,3 V 4 H 2 V 5 H 1 V 4 H 0 V 5 6 H 1 2 V 7 H 3 V 6 5 4 3 H 2 Z M 2,7 H 1 0 v 1 h 1 1 z" />
  </g>
  <g
     inkscape:groupmode="layer"
     id="layer68"
     inkscape:label="h"
     style="display:none">
    <path
       id="rect5-29-40"
       style="display:inline;fill:#008080"
       inkscape:label="PERIOD"
       d="M 0,1 V 2 3 4 5 6 H 1 V 5 4 H 2 V 5 6 H 3 V 5 4 3 H 2 1 V 2 1 Z" />
  </g>
  <g
     inkscape:groupmode="layer"
     id="layer69"
     inkscape:label="i"
     style="display:none">
    <path
       id="rect5-29-52"
       style="display:inline;fill:#008080"
       inkscape:label="PERIOD"
       d="M 1,1 V 2 H 2 V 1 Z M 1,3 V 4 5 6 H 2 V 5 4 3 Z" />
  </g>
  <g
     inkscape:groupmode="layer"
     id="g3"
     inkscape:label="j"
     style="display:none">
    <path
       id="rect5-29-69"
       style="display:inline;fill:#008080"
       inkscape:label="PERIOD"
       d="M 1,1 V 2 H 2 V 1 Z M 1,3 V 4 5 H 0 V 6 H 1 2 V 5 4 3 Z" />
  </g>
  <g
     inkscape:groupmode="layer"
     id="layer70"
     inkscape:label="k"
     style="display:none">
    <path
       id="rect5-29-71"
       style="display:inline;fill:#008080"
       inkscape:label="PERIOD"
       d="M 0,1 V 2 3 4 5 6 H 1 V 5 H 2 V 4 H 1 V 3 2 1 Z M 2,4 H 3 V 3 H 2 Z M 2,5 V 6 H 3 V 5 Z" />
  </g>
  <g
     inkscape:groupmode="layer"
     id="layer72"
     inkscape:label="l"
     style="display:none">
    <path
       id="rect5-29-66"
       style="display:inline;fill:#008080"
       inkscape:label="PERIOD"
       d="M 1,1 V 2 3 4 5 6 H 2 V 5 4 3 2 1 Z" />
  </g>
  <g
     inkscape:groupmode="layer"
     id="layer71"
     inkscape:label="m"
     style="display:none">
    <path
       id="rect5-29-80"
       style="display:inline;fill:#008080"
       inkscape:label="PERIOD"
       d="M 0,3 V 4 5 6 H 1 V 5 H 2 V 6 H 3 V 5 4 3 H 2 V 4 H 1 V 3 Z" />
  </g>
  <g
     inkscape:groupmode="layer"
     id="layer73"
     inkscape:label="n"
     style="display:none">
    <path
       id="rect5-29-19"
       style="display:inline;fill:#008080"
       inkscape:label="PERIOD"
       d="M 0,3 V 4 5 6 H 1 V 5 4 H 2 V 3 H 1 Z M 2,4 V 5 6 H 3 V 5 4 Z" />
  </g>
  <g
     inkscape:groupmode="layer"
     id="layer74"
     inkscape:label="o"
     style="display:none">
    <path
       id="rect5-29-571"
       style="display:inline;fill:#008080;stroke-width:0.707107"
       inkscape:label="PERIOD"
       d="M 0,3 V 4 5 6 H 1 2 V 5 H 1 V 4 H 2 V 5 5 5.9999997 L 3,6 V 5 4 3 H 2 1 Z"
       sodipodi:nodetypes="cccccccccccccccccccc" />
  </g>
  <g
     inkscape:groupmode="layer"
     id="layer75"
     inkscape:label="p"
     style="display:none">
    <path
       id="rect5-29-33"
       style="display:inline;fill:#008080"
       inkscape:label="shape"
       d="M 1,3 V 4 H 2 V 5 H 1 V 4 H 0 V 5 6 7 8 H 1 V 7 6 H 2 3 V 5 4 3 H 2 Z" />
  </g>
  <g
     inkscape:groupmode="layer"
     id="layer76"
     inkscape:label="q"
     style="display:none">
    <path
       id="rect5-29-400"
       style="display:inline;fill:#008080"
       inkscape:label="shape"
       d="M 1,3 V 4 H 2 V 5 H 1 V 4 H 0 V 5 6 H 1 2 V 7 8 H 3 V 7 6 5 4 3 H 2 Z" />
  </g>
  <g
     inkscape:groupmode="layer"
     id="layer77"
     inkscape:label="r"
     style="display:none">
    <path
       id="rect5-29-74"
       style="display:inline;fill:#008080"
       inkscape:label="PERIOD"
       d="M 0,3 V 4 5 6 H 1 V 5 4 H 2 V 3 H 1 Z" />
  </g>
  <g
     inkscape:groupmode="layer"
     id="layer78"
     inkscape:label="s"
     style="display:none">
    <path
       id="rect5-29-79"
       style="display:inline;fill:#008080"
       inkscape:label="PERIOD"
       d="M 1,3 V 4 5 H 0 V 6 H 1 2 V 5 4 H 3 V 3 H 2 Z" />
  </g>
  <g
     inkscape:groupmode="layer"
     id="layer79"
     inkscape:label="t"
     style="display:none">
    <path
       id="rect5-29-99"
       style="display:inline;fill:#008080"
       inkscape:label="PERIOD"
       d="M 1,2 V 3 H 0 V 4 H 1 V 5 6 H 2 V 5 4 H 3 V 3 H 2 V 2 Z" />
  </g>
  <g
     inkscape:groupmode="layer"
     id="layer80"
     inkscape:label="u"
     style="display:none">
    <path
       id="rect5-29-29"
       style="display:inline;fill:#008080"
       inkscape:label="PERIOD"
       d="M 0,3 V 4 5 6 H 1 2 3 V 5 4 3 H 2 V 4 5 H 1 V 4 3 Z" />
  </g>
  <g
     inkscape:groupmode="layer"
     id="layer81"
     inkscape:label="v"
     style="display:none">
    <path
       id="rect5-29-46"
       style="display:inline;fill:#008080"
       inkscape:label="PERIOD"
       d="M 0,3 V 4 5 H 1 V 4 3 Z M 1,5 V 6 H 2 V 5 Z M 2,5 H 3 V 4 3 H 2 v 1 z" />
  </g>
  <g
     inkscape:groupmode="layer"
     id="layer82"
     inkscape:label="w"
     style="display:none">
    <path
       id="rect5-29-41"
       style="display:inline;fill:#008080"
       inkscape:label="PERIOD"
       d="M 0,3 V 4 5 6 H 1 2 3 V 5 4 3 H 2 V 4 H 1 V 3 Z" />
  </g>
  <g
     inkscape:groupmode="layer"
     id="layer83"
     inkscape:label="x"
     style="display:none">
    <path
       id="rect5-29-48"
       style="display:inline;fill:#008080"
       inkscape:label="PERIOD"
       d="M 0,3 V 4 H 1 V 3 Z M 1,4 V 5 H 2 V 4 Z M 2,4 H 3 V 3 H 2 Z M 2,5 V 6 H 3 V 5 Z M 1,5 H 0 v 1 h 1 z" />
  </g>
  <g
     inkscape:groupmode="layer"
     id="layer84"
     inkscape:label="y"
     style="display:none">
    <path
       id="rect5-29-660"
       style="display:inline;fill:#008080"
       inkscape:label="shape"
       d="M 0,3 V 4 5 6 H 1 2 V 7 H 1 0 V 8 H 1 2 V 6.9999997 L 3,7 V 6 5 4 3 H 2 V 4 5 H 1 V 4 3 Z"
       sodipodi:nodetypes="ccccccccccccccccccccccccc" />
  </g>
  <g
     inkscape:groupmode="layer"
     id="layer85"
     inkscape:label="z"
     style="display:none">
    <path
       id="rect5-29-63"
       style="display:inline;fill:#008080"
       inkscape:label="PERIOD"
       d="M 0,2 V 3 H 1 2 V 4 H 3 V 3 2 H 2 1 Z M 2,4 H 1 V 5 H 2 Z M 2,5 V 6 7 H 3 V 6 5 Z M 2,7 H 1 0 V 8 H 1 2 Z M 1,5 H 0 v 1 h 1 z" />
  </g>
  <g
     inkscape:groupmode="layer"
     id="g5"
     inkscape:label="z alt"
     style="display:none">
    <path
       id="rect5-29-79-3"
       style="display:inline;fill:#008080"
       inkscape:label="PERIOD"
       d="m 2,2.9999998 v 1 1 h 1 v 1 H 2 1 v -1 -1 H 0 v -1 h 1 z" />
  </g>
  <g
     inkscape:groupmode="layer"
     id="layer1"
     inkscape:label="{"
     style="display:none">
    <path
       id="rect5-29-58"
       style="display:inline;fill:#008080"
       inkscape:label="shape"
       d="M 2,1 V 2 H 3 V 1 Z M 2,2 H 1 V 3 H 2 Z M 2,3 V 4 H 3 V 3 Z M 2,4 H 1 V 5 H 2 Z M 2,5 V 6 H 3 V 5 Z" />
  </g>
  <g
     inkscape:groupmode="layer"
     id="g4"
     inkscape:label="}"
     style="display:none">
    <path
       id="path3"
       style="display:inline;fill:#008080"
       inkscape:label="shape"
       d="M 2,1 V 2 H 1 V 1 Z M 2,2 H 3 V 3 H 2 Z M 2,3 V 4 H 1 V 3 Z M 2,4 H 3 V 5 H 2 Z M 2,5 V 6 H 1 V 5 Z" />
  </g>
  <g
     inkscape:groupmode="layer"
     id="layer5"
     inkscape:label="^"
     style="display:none">
    <path
       id="rect5-29-94"
       style="display:inline;fill:#008080"
       inkscape:label="shape"
       d="M 1,2 V 3 H 2 V 2 Z M 2,3 V 4 H 3 V 3 Z M 1,3 H 0 v 1 h 1 z" />
  </g>
  <g
     inkscape:groupmode="layer"
     id="layer41"
     inkscape:label="#"
     style="display:none">
    <path
       id="rect5-29-0"
       style="display:inline;fill:#008080"
       inkscape:label="shape"
       d="M 0,1 V 2 3 4 5 6 H 1 V 5 H 2 V 6 H 3 V 5 4 3 2 1 H 2 V 2 H 1 V 1 Z M 1,3 H 2 V 4 H 1 Z" />
  </g>
  <g
     inkscape:groupmode="layer"
     id="layer58"
     inkscape:label="$"
     style="display:none">
    <path
       id="rect5-29-64"
       style="display:inline;fill:#008080"
       inkscape:label="shape"
       d="M 1,1 V 2 3 H 0 V 4 5 H 1 V 6 H 2 V 5 4 H 3 V 3 2 H 2 V 1 Z" />
  </g>
  <g
     inkscape:groupmode="layer"
     id="layer87"
     inkscape:label="$ alt"
     style="display:none">
    <path
       id="rect5-29-38"
       style="display:inline;fill:#008080"
       inkscape:label="shape"
       d="M 1,0 V 1 H 0 V 2 3 4 H 1 2 V 5 H 1 0 V 6 H 1 V 7 H 2 V 6 H 3 V 5 4 3 H 2 1 V 2 H 2 3 V 1 H 2 V 0 Z" />
  </g>
  <g
     inkscape:groupmode="layer"
     id="layer88"
     inkscape:label="&amp;"
     style="display:none">
    <path
       id="rect5-29-53"
       style="display:inline;fill:#008080"
       inkscape:label="shape"
       d="M 0,2 V 3 4 H 1 V 3 H 2 V 2 H 1 Z M 2,3 V 4 H 3 V 3 Z M 2,4 H 1 V 5 H 2 Z M 2,5 V 6 H 3 V 5 Z M 1,5 H 0 v 1 h 1 z" />
  </g>
  <g
     inkscape:groupmode="layer"
     id="layer89"
     inkscape:label="%"
     style="display:none">
    <path
       id="rect5-29-388"
       style="display:inline;fill:#008080"
       inkscape:label="shape"
       d="M 0,1 V 2 H 1 V 1 Z M 2,2 V 3 H 3 V 2 Z M 2,3 H 1 V 4 H 2 Z M 1,4 H 0 V 5 H 1 Z M 2,5 V 6 H 3 V 5 Z" />
  </g>
</svg>
